<svg width="24" height="24" viewBox="0 0 24 24" fill="none" xmlns="http://www.w3.org/2000/svg">
<g clip-path="url(#clip0_52_8622)">
<mask id="mask0_52_8622" style="mask-type:luminance" maskUnits="userSpaceOnUse" x="0" y="0" width="24" height="24">
<path d="M0 0H24V24H0V0Z" fill="white"/>
</mask>
<g mask="url(#mask0_52_8622)">
<path d="M23.5768 10.9151L13.0852 0.424141C12.9414 0.280326 12.7708 0.16624 12.583 0.0884032C12.3951 0.0105661 12.1938 -0.0294971 11.9905 -0.0294971C11.7872 -0.0294971 11.5859 0.0105661 11.398 0.0884032C11.2102 0.16624 11.0395 0.280326 10.8958 0.424141L8.71799 2.60304L11.4811 5.36616C11.8059 5.25584 12.1552 5.23861 12.4893 5.31644C12.8234 5.39426 13.1291 5.56403 13.3718 5.80654C13.6158 6.05081 13.7861 6.35883 13.8633 6.69536C13.9405 7.0319 13.9214 7.38336 13.8082 7.70955L16.4722 10.3728C16.7985 10.2594 17.1501 10.2404 17.4867 10.3177C17.8233 10.395 18.1313 10.5657 18.3755 10.81C18.5464 10.981 18.6821 11.1839 18.7746 11.4073C18.8672 11.6307 18.9148 11.8701 18.9148 12.1119C18.9148 12.3537 18.8672 12.5932 18.7746 12.8166C18.6821 13.0399 18.5464 13.2429 18.3755 13.4139C18.0298 13.7592 17.5611 13.9532 17.0725 13.9532C16.5839 13.9532 16.1152 13.7592 15.7695 13.4139C15.5127 13.1566 15.3378 12.8292 15.2667 12.4727C15.1956 12.1163 15.2315 11.7468 15.3699 11.4107L12.8856 8.92714V15.4641C13.1478 15.5936 13.3754 15.7838 13.5495 16.0188C13.7236 16.2538 13.8392 16.5269 13.8868 16.8155C13.9343 17.104 13.9124 17.3998 13.8229 17.6782C13.7334 17.9567 13.5788 18.2098 13.372 18.4166C13.2011 18.5876 12.9981 18.7232 12.7747 18.8157C12.5513 18.9083 12.3119 18.9559 12.0701 18.9559C11.8283 18.9559 11.5889 18.9083 11.3655 18.8157C11.1421 18.7232 10.9392 18.5876 10.7682 18.4166C10.5972 18.2456 10.4615 18.0426 10.3689 17.8192C10.2764 17.5958 10.2287 17.3563 10.2287 17.1145C10.2287 16.8727 10.2764 16.6332 10.3689 16.4098C10.4615 16.1864 10.5972 15.9834 10.7682 15.8124C10.9405 15.6398 11.1453 15.503 11.3707 15.41V8.81286C11.1462 8.72038 10.9422 8.58445 10.7703 8.41287C10.5985 8.2413 10.4622 8.03746 10.3694 7.81308C10.2766 7.58869 10.229 7.34817 10.2294 7.10534C10.2298 6.86251 10.2782 6.62216 10.3718 6.39808L7.64738 3.67314L0.452801 10.866C0.162884 11.1565 5.72205e-05 11.5501 5.72205e-05 11.9605C5.72205e-05 12.3709 0.162884 12.7646 0.452801 13.0551L10.945 23.5474C11.2355 23.8372 11.6291 24 12.0394 24C12.4497 24 12.8433 23.8372 13.1338 23.5474L23.5768 13.1042C23.8667 12.8138 24.0296 12.4201 24.0296 12.0097C24.0296 11.5993 23.8667 11.2056 23.5768 10.9151Z" fill="#F03C2E"/>
</g>
</g>
<defs>
<clipPath id="clip0_52_8622">
<rect width="24" height="24" fill="white"/>
</clipPath>
</defs>
</svg>
