<svg width="16" height="16" viewBox="0 0 16 16" fill="none" xmlns="http://www.w3.org/2000/svg">
<path d="M11.2186 5.87839H15.2122L12.6674 3.33199C11.8481 2.51269 10.8275 1.9235 9.70832 1.62367C8.58913 1.32384 7.41072 1.32393 6.29157 1.62393C5.17242 1.92392 4.15196 2.51326 3.33279 3.33268C2.51362 4.15211 1.9246 5.17274 1.62495 6.29199M0.788153 14.1152V10.1216M0.788153 10.1216H4.78175M0.788153 10.1216L3.33215 12.668C4.15145 13.4873 5.17199 14.0765 6.29118 14.3763C7.41038 14.6761 8.58879 14.676 9.70794 14.3761C10.8271 14.0761 11.8475 13.4867 12.6667 12.6673C13.4859 11.8479 14.0749 10.8272 14.3746 9.70799M15.2122 1.88479V5.87679" stroke="#222222" stroke-width="1.5" stroke-linecap="round" stroke-linejoin="round"/>
</svg>
