<svg width="9" height="12" viewBox="0 0 9 12" fill="none" xmlns="http://www.w3.org/2000/svg">
<path d="M3.588 8.124L3.172 5.868C3.588 5.76133 3.96133 5.644 4.292 5.516C4.62267 5.37733 4.90533 5.23333 5.14 5.084C5.38533 4.924 5.588 4.75333 5.748 4.572C5.908 4.39067 6.02533 4.19867 6.1 3.996C6.18533 3.78267 6.228 3.55867 6.228 3.324C6.228 3.01467 6.14267 2.73733 5.972 2.492C5.812 2.24667 5.588 2.05467 5.3 1.916C5.012 1.77733 4.68667 1.708 4.324 1.708C3.89733 1.708 3.48133 1.85733 3.076 2.156C2.68133 2.444 2.34 2.85467 2.052 3.388L0.852 2.38C1.31067 1.676 1.85467 1.132 2.484 0.747999C3.124 0.353333 3.79067 0.155999 4.484 0.155999C5.156 0.155999 5.75867 0.294666 6.292 0.572C6.82533 0.849333 7.24667 1.228 7.556 1.708C7.876 2.188 8.036 2.72667 8.036 3.324C8.036 3.676 7.96133 4.02267 7.812 4.364C7.67333 4.69467 7.47067 5.00933 7.204 5.308C6.93733 5.60667 6.62267 5.87333 6.26 6.108C5.908 6.34267 5.51867 6.53467 5.092 6.684L4.82 8.124H3.588ZM3.028 10.476C3.028 10.124 3.12933 9.836 3.332 9.612C3.53467 9.388 3.80133 9.276 4.132 9.276C4.484 9.276 4.756 9.38267 4.948 9.596C5.14 9.79867 5.236 10.092 5.236 10.476C5.236 10.828 5.13467 11.116 4.932 11.34C4.72933 11.564 4.46267 11.676 4.132 11.676C3.78 11.676 3.508 11.5747 3.316 11.372C3.124 11.1587 3.028 10.86 3.028 10.476Z" fill="#222222"/>
</svg>
